# xmcd CD database file
#
# Track frame offsets:
#	150
#	10747
#	22258
#	31378
#	40494
#	50606
#	65255
#	79209
#	90432
#	99490
#	108806
#	118942
#
# Disc length: 1722 seconds
#
# Revision: 0
# Processed by: cddbd v1.5.2PL0 Copyright (c) Steve Scherf et al.
# Submitted via: CDex 1.51
#
DISCID=9606b80c
DTITLE=Webb Pierce - King Of Honky Tonk
DYEAR=2004
DGENRE=Country
TTITLE0=In The Jailhouse Now
TTITLE1=Slowly
TTITLE2=Love, Love, Love
TTITLE3=I Don't Care
TTITLE4=There Stands The Glass
TTITLE5=Wondering
TTITLE6=That Heart Belongs To Me
TTITLE7=More And More
TTITLE8=I Ain't Never
TTITLE9=Honky Tonk Song
TTITLE10=Fool, Fool, Fool
TTITLE11=It's Been So Long
EXTD=YEAR: 2004
EXTT0=
EXTT1=
EXTT2=
EXTT3=
EXTT4=
EXTT5=
EXTT6=
EXTT7=
EXTT8=
EXTT9=
EXTT10=
EXTT11=
PLAYORDER=
